# xmcd
#
# Track frame offsets: 
#        150
#        79135
#        117250
#        213460
#
# Disc length: 3454 seconds
#
# Revision: 3
# Processed by: cddbd v1.5.2PL0 Copyright (c) Steve Scherf et al.
# Submitted via: ExactAudioCopy v1.3
#
DISCID=300d7c04
DTITLE=Royal Concertgebouw Orchestra - RCO 125 anniversary edition - Th
DTITLE=e Radio Legacy, CD 023 [Willem Mengelberg, chief conductor 1895
DTITLE=1945]
DYEAR=2013
DGENRE=Classical
TTITLE0=Gustav Mahler: Sinfonía No. 4 en Sol Mayor (1899-1900 - rev. 19
TTITLE0=01-1910) - I. Heiter, bedächtig
TTITLE1=Gustav Mahler: Sinfonía No. 4 en Sol Mayor (1899-1900 - rev. 19
TTITLE1=01-1910) - II. In gemächlicher Bewegung, ohne Hast . Scherzo -
TTITLE1=Trío
TTITLE2=Gustav Mahler: Sinfonía No. 4 en Sol Mayor (1899-1900 - rev. 19
TTITLE2=01-1910) - III. Ruhevoll, poco adagio. Thema mit variationen
TTITLE3=Gustav Mahler: Sinfonía No. 4 en Sol Mayor (1899-1900 - rev. 19
TTITLE3=01-1910) - IV. Sehr behaglich. 'Das himmlische Leben'
EXTD=YEAR: 1940
EXTT0=
EXTT1=
EXTT2=
EXTT3=
PLAYORDER=
